<?xml version="1.0" encoding="UTF-8" standalone="no"?>
<!-- Created with Inkscape (http://www.inkscape.org/) -->

<svg
   width="42.785904mm"
   height="50.437412mm"
   viewBox="0 0 42.785904 50.437412"
   version="1.1"
   id="svg5"
   xml:space="preserve"
   xmlns="http://www.w3.org/2000/svg"
   xmlns:svg="http://www.w3.org/2000/svg"><defs
     id="defs2" /><g
     id="layer1"
     transform="translate(-145.94361,-67.32608)"><rect
       style="fill:#ffffff;fill-opacity:1;stroke-width:2.19334"
       id="rect2875"
       width="41.864914"
       height="9.3300934"
       x="146.21019"
       y="108.4334"
       transform="translate(-1.0416666e-6)" /><circle
       style="fill:#ffffff;fill-opacity:1;stroke-width:2.32677"
       id="path2931"
       cx="167.33656"
       cy="88.719032"
       r="21.392952" /><rect
       style="fill:#4d4d4d;fill-opacity:1;stroke-width:0.446008"
       id="rect466-5-0"
       width="39.808865"
       height="1.6482965"
       x="146.91516"
       y="115.20637"
       transform="translate(-1.0416666e-6)" /><rect
       style="fill:#3e0a71;fill-opacity:1;stroke-width:0.493888"
       id="rect1197-3-9"
       width="33.812737"
       height="1.5404967"
       x="146.91516"
       y="109.53082" /><rect
       style="fill:#0b8772;fill-opacity:1;stroke-width:0.496069"
       id="rect1199-5-3"
       width="5.2989149"
       height="1.5404967"
       x="181.42511"
       y="109.53082" /><rect
       style="fill:#f88800;fill-opacity:1;stroke-width:0.496069"
       id="rect1201-6-6"
       width="22.51119"
       height="2.0007777"
       x="146.91516"
       y="112.1891" /><rect
       style="fill:#f0ab00;fill-opacity:1;stroke-width:0.496069"
       id="rect1203-2-0"
       width="16.725082"
       height="2.0007777"
       x="169.99893"
       y="112.1891" /><path
       style="fill:#000000;stroke-width:0.0239453"
       d="m 166.42348,108.3698 c -3.13906,-0.43509 -6.45322,-1.39129 -8.58878,-3.89844 -1.70941,-0.31318 -3.66082,-0.65189 -5.14574,-1.78419 -2.12719,-1.34993 -3.72246,-4.033263 -2.85683,-6.577273 -2.26423,-0.93906 -2.89117,-3.720074 -2.61279,-5.945473 -0.34718,-2.111925 2.44931,-3.565115 1.47059,-5.382545 -0.30048,-2.296939 0.1683,-4.692385 1.09093,-6.800906 1.18848,-2.578624 3.61669,-4.335843 6.29141,-5.128315 0.81638,-1.782029 3.05433,-2.336948 4.82447,-1.886081 2.60154,-2.200199 6.3971,-2.703453 9.59513,-1.671985 1.57946,0.08129 2.48333,2.090695 4.06433,1.527406 2.03427,-0.382762 3.14601,1.456351 4.53742,2.276883 2.52421,0.884542 4.66203,2.743165 5.72696,5.216686 0.78196,2.107978 1.29774,4.451246 0.87241,6.693261 -0.66738,1.747434 0.73213,1.999861 1.42485,4.517786 0.22732,2.125411 -0.37909,5.707143 -2.51073,6.583283 0.95671,2.855019 -1.09503,5.721513 -3.55076,7.013053 -1.53502,1.30138 -3.93245,0.52038 -5.16851,2.05577 -2.28946,2.18836 -5.56572,2.9796 -8.63098,3.2179 -0.27789,-0.003 -0.55708,0.009 -0.83338,-0.0271 z m -3.98217,-2.97081 c -3.08727,-2.54382 -3.33422,-7.408484 -1.42579,-10.731814 1.63829,-2.715181 4.27749,-4.841499 7.31487,-5.741906 2.69514,-1.680597 4.60772,-4.740914 4.33684,-7.98285 -0.0452,-2.371119 -0.88204,-4.714511 -2.10807,-6.72235 -1.63986,-1.798348 -4.13713,-2.963886 -6.57365,-2.879283 -1.57744,0.522192 -2.34044,2.328939 -4.16531,1.419981 -2.02211,-0.220089 -2.16575,2.341163 -4.16868,2.326621 -2.91075,0.977696 -4.74282,3.894072 -4.98034,6.868859 -0.86919,1.787808 0.53484,3.088559 0.45957,4.604978 -1.61394,0.860545 -2.06652,2.787242 -2.01326,4.57535 -0.4064,2.166905 1.4671,3.194571 2.97177,4.020381 -0.47778,1.78106 -0.94803,4.08766 0.99387,5.398473 1.41754,1.30022 3.33208,1.80127 5.18763,1.89373 1.46984,0.71639 2.39027,2.52311 4.17055,2.94983 z m -3.87793,-14.437157 c -1.95244,0.05207 -3.50842,-1.626616 -4.03606,-3.382779 -0.48763,-1.455656 -0.0464,-3.234348 -0.22913,-4.545484 -0.89486,0.895768 -4.27638,2.102463 -2.9258,-0.36301 1.0564,-1.795883 2.6243,-3.3132 4.54796,-4.153097 2.12601,-1.384901 4.84816,-1.605472 7.25598,-0.951257 2.91198,1.505702 5.42464,3.999001 6.59696,7.095596 0.44966,2.494685 -3.00279,0.284821 -3.91063,-0.522674 -0.83749,2.594374 -2.2214,5.375235 -4.90913,6.421542 -0.76414,0.239665 -1.58082,0.498409 -2.39,0.401163 z M 157.8332,88.72806 c 2.99213,-0.389022 -2.85502,-1.528724 -0.58235,-0.158063 l 0.30665,0.15054 0.27549,0.0063 z m 4.32251,-3.908761 c 1.83023,-0.912603 -0.89201,-2.847611 -0.87329,-0.601107 -0.0181,0.340283 0.52117,0.75806 0.87329,0.601107 z m -4.9692,-0.663004 c 1.3003,-0.926602 -0.60056,-2.602771 -0.83158,-0.728313 -0.0406,0.472515 0.44328,1.171773 0.83158,0.728313 z m 14.33824,19.728835 c 1.86953,-0.31848 3.5668,-1.48625 4.58719,-3.02012 1.59214,0.0355 3.33277,-0.64398 3.91015,-2.223174 0.65469,-1.41249 0.27067,-3.36165 -1.30594,-3.98351 -1.4758,-0.765304 -3.31178,-0.57731 -4.69301,0.260141 -0.78518,0.43269 -1.07657,1.28167 -1.58777,1.93619 -2.09792,-0.0711 -4.24811,0.82179 -5.5989,2.440299 -0.97433,1.399574 0.20684,3.254534 1.52394,3.948094 0.9422,0.5834 2.08645,0.66608 3.16434,0.6422 z m -1.7272,-1.35639 c -1.35666,0.22671 -2.64504,-1.49447 -1.34263,-2.46208 1.38009,-0.995394 3.20059,-0.887434 4.8145,-0.845494 0.65331,-1.13309 1.2754,-2.59512 2.73221,-2.80916 1.10601,-0.53677 2.81379,0.29024 2.41411,1.65786 -0.58835,1.61665 -2.56556,1.72338 -4.02074,1.73302 -0.8516,1.285484 -2.06847,2.507964 -3.67937,2.682254 -0.30553,0.018 -0.61164,0.0542 -0.91808,0.0436 z m 0.5333,-0.90911 c 1.00678,-0.34145 1.95127,-1.05868 2.56144,-1.835174 -1.09705,-0.0491 -2.17952,0.275494 -3.18497,0.665784 -0.88153,0.59303 -0.41001,1.44915 0.62353,1.16939 z m 4.82667,-2.584594 c 0.97408,-0.19751 2.1609,-0.64852 2.35218,-1.72852 -0.68077,-0.4842 -1.58064,0.26675 -2.03123,0.82119 -0.13849,0.22701 -1.05071,1.09298 -0.32095,0.90733 z"
       id="path311-9-6" /></g></svg>
